<?xml version="1.0" standalone="no"?>
<!DOCTYPE svg PUBLIC "-//W3C//DTD SVG 20010904//EN"
 "http://www.w3.org/TR/2001/REC-SVG-20010904/DTD/svg10.dtd">
<svg version="1.0" xmlns="http://www.w3.org/2000/svg"
 width="500.000000pt" height="500.000000pt" viewBox="0 0 500.000000 500.000000"
 preserveAspectRatio="xMidYMid meet">

<g transform="translate(0.000000,500.000000) scale(0.100000,-0.100000)"
fill="#ffffff" stroke="none">
<path d="M2495 4290 c-38 -10 -73 -19 -77 -19 -5 -1 -8 -4 -8 -8 0 -5 64 -8
143 -8 138 -1 145 -2 239 -37 150 -55 258 -137 359 -270 126 -169 175 -323
167 -530 -3 -65 -2 -118 2 -118 3 0 14 6 23 13 23 16 33 157 18 257 -13 95
-75 257 -126 335 -124 187 -310 324 -510 375 -113 29 -151 31 -230 10z"/>
<path d="M2820 4306 c0 -3 24 -16 54 -29 133 -61 274 -177 358 -294 68 -95
106 -170 144 -283 26 -78 28 -98 28 -236 l1 -151 54 -21 c38 -15 57 -18 62
-11 8 14 29 172 29 223 0 56 -37 228 -66 304 -67 178 -215 342 -391 431 -77
39 -273 87 -273 67z"/>
<path d="M2373 4145 c-138 -38 -237 -125 -308 -269 -41 -82 -55 -126 -39 -126
3 0 34 21 67 47 81 61 245 148 326 173 138 43 291 43 448 0 42 -11 78 -18 81
-15 9 9 -58 74 -116 112 -115 77 -333 114 -459 78z"/>
<path d="M1550 3820 c-65 -7 -156 -51 -204 -100 -52 -51 -31 -310 39 -490 20
-52 37 -101 37 -107 1 -7 4 -13 8 -13 4 0 15 -19 25 -42 25 -56 106 -179 116
-176 4 2 38 36 74 77 73 80 145 186 182 268 22 48 23 56 12 120 -34 207 -80
366 -118 406 -22 25 -94 70 -103 66 -2 -1 -32 -5 -68 -9z"/>
<path d="M2995 3481 c-11 -5 -33 -23 -49 -39 -49 -53 -46 -158 5 -190 54 -34
153 -2 185 61 23 43 14 112 -18 144 -27 27 -89 39 -123 24z"/>
<path d="M3284 3234 c-150 -72 -245 -283 -182 -404 13 -25 30 -46 40 -48 14
-3 15 2 7 39 -19 82 21 198 96 278 72 77 172 111 248 82 15 -6 27 -7 27 -3 0
11 -50 57 -77 71 -36 18 -104 12 -159 -15z"/>
<path d="M1835 3170 c-41 -82 -119 -183 -193 -250 l-65 -59 36 -44 c44 -54
165 -163 227 -203 71 -48 160 -88 171 -77 5 5 14 29 19 54 8 36 9 29 5 -41 -3
-47 -8 -152 -12 -235 -6 -148 -6 -150 13 -127 10 13 35 26 54 31 44 9 482 -14
532 -29 42 -12 59 -36 67 -95 l6 -40 127 -3 128 -3 -7 48 c-3 26 -9 53 -13 58
-11 14 -34 134 -27 141 3 3 18 -16 34 -43 15 -26 33 -57 40 -68 6 -11 19 -35
27 -52 18 -39 29 -40 98 -9 76 34 114 45 191 53 l67 8 -60 104 c-33 57 -66
109 -73 115 -7 6 -21 23 -30 38 -9 15 -44 56 -77 91 -33 36 -60 69 -60 74 0
13 -56 53 -74 53 -8 0 -17 -4 -20 -9 -20 -32 -350 -48 -446 -22 -25 6 -95 32
-156 57 -84 34 -131 61 -190 108 -88 71 -183 183 -222 263 -15 29 -32 53 -39
53 -7 0 -13 10 -13 23 -1 12 -9 38 -19 57 l-19 34 -27 -54z"/>
<path d="M2848 3179 c-21 -12 -24 -69 -6 -87 18 -18 53 -15 71 6 46 51 -7 115
-65 81z"/>
<path d="M3352 3124 c-48 -24 -122 -97 -122 -121 0 -6 -6 -13 -14 -16 -31 -12
-47 -141 -24 -192 32 -70 158 -71 238 -3 53 45 110 169 110 240 0 62 -53 118
-113 118 -12 0 -47 -12 -75 -26z"/>
<path d="M2118 2897 c58 -59 194 -133 289 -158 175 -45 402 -19 555 64 68 37
78 45 78 70 0 15 -2 27 -4 27 -2 0 -41 -21 -86 -46 -46 -25 -117 -55 -159 -66
-102 -27 -268 -30 -373 -5 -75 18 -222 86 -285 133 -52 39 -60 27 -15 -19z"/>
<path d="M3020 2789 c-18 -11 -56 -29 -84 -40 -28 -11 -64 -26 -81 -34 -30
-13 -105 -29 -197 -40 -27 -4 -48 -10 -48 -16 0 -12 149 -11 229 2 82 13 261
72 261 86 0 3 -11 18 -24 33 l-23 28 -33 -19z"/>
<path d="M3078 2687 c-16 -6 -28 -15 -28 -20 0 -14 43 -46 64 -47 12 0 16 -5
13 -15 -4 -8 -2 -17 4 -21 18 -10 155 -187 180 -231 25 -44 39 -54 39 -28 0
24 -59 235 -74 263 -21 39 -65 77 -114 96 -48 18 -47 18 -84 3z"/>
<path d="M2070 2172 c-20 -16 -24 -32 -31 -123 -4 -57 -10 -127 -14 -156 -7
-46 -5 -54 17 -76 20 -20 39 -26 102 -32 43 -4 80 -5 82 -2 3 2 5 35 5 72 1
61 -2 72 -33 114 -31 44 -33 50 -33 134 l0 87 -36 0 c-21 0 -47 -8 -59 -18z"/>
<path d="M2196 2152 c-11 -71 -7 -116 17 -151 44 -67 47 -77 47 -147 l0 -71
53 -7 c78 -9 156 -7 177 4 34 18 40 44 46 198 8 186 7 187 -125 196 -47 4
-114 8 -147 11 l-62 4 -6 -37z m239 -96 c33 -14 65 -59 65 -91 0 -33 -32 -77
-67 -91 -60 -25 -115 4 -137 73 -11 33 21 93 58 109 39 17 40 17 81 0z"/>
<path d="M2358 2017 c-21 -16 -32 -58 -23 -86 8 -27 60 -54 85 -46 25 8 60 53
60 77 0 49 -81 86 -122 55z"/>
<path d="M2566 2154 c5 -10 9 -48 10 -84 1 -36 4 -65 6 -65 15 0 78 68 78 84
0 28 -40 69 -74 77 -26 6 -28 5 -20 -12z"/>
<path d="M3170 2109 c-47 -17 -101 -37 -120 -44 -19 -7 -34 -19 -34 -26 1 -8
9 -54 18 -103 11 -59 16 -147 16 -261 0 -230 -5 -223 158 -215 12 0 46 0 75
-1 60 -2 101 15 122 52 58 99 73 180 56 291 -28 177 -67 313 -94 330 -26 17
-114 6 -197 -23z"/>
<path d="M1967 2037 c-23 -16 -34 -82 -17 -102 7 -8 21 -15 31 -15 17 0 19 8
19 65 0 67 -4 74 -33 52z"/>
<path d="M2632 1997 c-24 -25 -27 -51 -13 -91 14 -34 70 -41 330 -37 60 1 63
2 58 24 -3 12 -11 42 -17 67 l-11 46 -107 0 c-59 0 -132 4 -162 8 -51 6 -58 5
-78 -17z"/>
<path d="M2566 1861 c-4 -33 -11 -63 -16 -66 -19 -12 -10 -35 14 -35 47 0 106
73 70 87 -8 3 -25 21 -38 40 l-23 34 -7 -60z"/>
<path d="M2675 1809 c-4 -16 -21 -40 -38 -55 l-32 -27 -155 7 c-85 3 -206 9
-268 13 l-113 6 11 -28 c6 -16 24 -43 40 -62 17 -19 30 -40 30 -47 0 -19 52
-62 111 -92 54 -27 116 -42 216 -53 40 -4 67 -11 66 -17 -1 -6 -5 -52 -9 -101
-5 -66 -3 -92 5 -98 50 -31 271 -21 408 18 l78 22 3 89 c2 53 -1 93 -8 100 -6
6 -10 76 -10 181 l0 170 -165 1 -164 1 -6 -28z"/>
<path d="M2012 1638 c-31 -96 -33 -112 -33 -231 0 -132 10 -153 87 -179 86
-30 196 -21 332 28 l72 26 0 72 0 73 -86 17 c-149 29 -257 101 -314 210 -14
25 -28 46 -32 46 -3 0 -15 -28 -26 -62z"/>
<path d="M3000 1253 c0 -13 -130 -42 -236 -53 -56 -6 -114 -6 -158 1 -38 5
-71 7 -73 5 -7 -7 17 -126 41 -195 26 -76 74 -153 112 -177 13 -9 44 -19 69
-22 25 -2 45 -8 45 -12 0 -13 -37 -18 -80 -13 -22 3 -40 3 -40 -1 0 -7 13 -32
68 -131 46 -84 123 -119 212 -96 56 15 87 37 124 89 24 34 30 54 34 116 3 49
1 76 -6 76 -6 0 -13 19 -17 43 -4 23 -18 86 -32 140 -14 54 -26 129 -27 165
-1 55 -4 67 -18 70 -10 2 -18 -1 -18 -5z"/>
<path d="M2450 1241 c0 -12 -122 -50 -206 -63 -71 -11 -129 -6 -212 18 l-23 7
16 -39 c53 -128 128 -196 266 -240 49 -16 89 -32 89 -36 0 -5 -18 -8 -40 -8
l-40 0 35 -69 c19 -38 50 -86 69 -107 30 -32 41 -38 89 -42 63 -5 119 16 144
55 15 22 15 29 -1 79 -9 30 -21 54 -26 54 -13 0 -68 83 -63 95 2 6 -6 38 -17
70 -11 33 -26 99 -32 147 -10 73 -15 88 -30 88 -10 0 -18 -4 -18 -9z"/>
</g>
</svg>
